# xmcd CD database file
#
# Track frame offsets:
#	150
#	12912
#	20238
#	32234
#	49162
#	66902
#	85240
#	110248
#	125492
#	140276
#	160249
#
# Disc length: 2243 seconds
#
# Revision: 0
# Processed by: cddbd v1.5.2PL0 Copyright (c) Steve Scherf et al.
# Submitted via: CDex 1.70beta2
#
DISCID=9b08c10b
DTITLE=Cor Vivaldi and Ignasi Terraza Trio - El 25 de desembre swing, sing, sing!
DYEAR=2012
DGENRE=Jazz
TTITLE0=Les dotze van tocant
TTITLE1=Benvinguda
TTITLE2=El desembre congelat
TTITLE3=L'àngel i els pastors
TTITLE4=El cant dels ocells
TTITLE5=El rabadà
TTITLE6=El dimoni escuat
TTITLE7=El noi de la mare
TTITLE8=Sant Josep i la Mare de Déu
TTITLE9=Fum, fum, fum
TTITLE10=Epílep nadalenc
EXTD=YEAR: 2012
EXTT0=
EXTT1=
EXTT2=
EXTT3=
EXTT4=
EXTT5=
EXTT6=
EXTT7=
EXTT8=
EXTT9=
EXTT10=
PLAYORDER=
